<?xml version="1.0" encoding="utf-8"?>
<!-- Generator: Adobe Illustrator 19.2.1, SVG Export Plug-In . SVG Version: 6.00 Build 0)  -->
<svg version="1.1" id="Capa_1" xmlns="http://www.w3.org/2000/svg" xmlns:xlink="http://www.w3.org/1999/xlink" x="0px" y="0px"
	 viewBox="0 0 20 20" style="enable-background:new 0 0 20 20;" xml:space="preserve">
<style type="text/css">
	.st0{opacity:0.3;enable-background:new    ;}
	.st1{clip-path:url(#SVGID_1_);fill:#404E67;}
	.st2{clip-path:url(#SVGID_2_);fill-rule:evenodd;clip-rule:evenodd;fill:#404E67;}
	.st3{fill:#404E67;}
</style>
<g>
	<g class="st0">
		<g>
			<defs>
				<rect id="SVGID_5_" x="2.9" y="10.4" width="14.3" height="7.1"/>
			</defs>
			<clipPath id="SVGID_1_">
				<use xlink:href="#SVGID_5_"  style="overflow:visible;"/>
			</clipPath>
			<path class="st1" d="M2.9,11.1c0-0.4,0.4-0.7,0.7-0.7c0.4,0,0.7,0.4,0.7,0.7v3.6c0,0.8,0.6,1.4,1.4,1.4h8.6
				c0.8,0,1.4-0.6,1.4-1.4v-3.6c0-0.4,0.3-0.7,0.7-0.7c0.4,0,0.7,0.3,0.7,0.7v3.6c0,1.6-1.3,2.9-2.9,2.9H5.7c-1.6,0-2.9-1.3-2.9-2.9
				V11.1z"/>
		</g>
	</g>
	<g class="st0">
		<g>
			<defs>
				<rect id="SVGID_7_" x="9.3" y="3.2" width="1.4" height="10"/>
			</defs>
			<clipPath id="SVGID_2_">
				<use xlink:href="#SVGID_7_"  style="overflow:visible;"/>
			</clipPath>
			<path class="st2" d="M10,3.2L10,3.2c0.4,0,0.7,0.3,0.7,0.7v8.6c0,0.4-0.3,0.7-0.7,0.7s-0.7-0.3-0.7-0.7V3.9
				C9.3,3.5,9.6,3.2,10,3.2"/>
		</g>
	</g>
	<path class="st3" d="M10,4.2L6.9,7.3c-0.3,0.3-0.7,0.3-1,0c-0.3-0.3-0.3-0.7,0-1l3.6-3.6c0.3-0.3,0.7-0.3,1,0L14,5.9
		c0.3,0.3,0.3,0.7,0.1,1c-0.3,0.3-0.7,0.3-1,0.1L10,4.2z"/>
</g>
</svg>
